<?xml version="1.0" standalone="no"?>
<!DOCTYPE svg PUBLIC "-//W3C//DTD SVG 20010904//EN"
 "http://www.w3.org/TR/2001/REC-SVG-20010904/DTD/svg10.dtd">
<svg version="1.0" xmlns="http://www.w3.org/2000/svg"
 width="512.000000pt" height="512.000000pt" viewBox="0 0 512.000000 512.000000"
 preserveAspectRatio="xMidYMid meet">
<metadata>
Created by potrace 1.14, written by Peter Selinger 2001-2017
</metadata>
<g transform="translate(0.000000,512.000000) scale(0.100000,-0.100000)"
fill="#000000" stroke="none">
<path d="M2378 5025 c-2 -1 -34 -5 -73 -9 -347 -32 -742 -167 -1047 -357 -579
-363 -984 -943 -1117 -1604 -58 -288 -65 -649 -16 -910 36 -197 66 -305 131
-472 223 -579 652 -1049 1213 -1328 102 -51 258 -114 346 -140 33 -10 79 -24
102 -31 46 -15 50 -16 208 -44 167 -30 175 -30 390 -34 192 -4 327 4 450 28
11 2 40 7 65 12 25 4 47 8 50 9 3 1 21 5 40 9 217 47 510 166 719 293 70 43
199 130 211 143 3 3 25 21 50 40 201 155 425 408 563 635 55 92 167 306 167
321 0 5 6 21 14 36 27 51 111 308 122 372 2 17 7 38 9 46 2 8 7 31 10 50 3 19
8 42 10 50 2 8 6 38 10 65 3 28 9 82 14 120 21 179 7 484 -34 700 -119 639
-508 1226 -1055 1589 -415 276 -868 412 -1371 414 -98 0 -179 -1 -181 -3z"/>
</g>
</svg>
